<svg width="1440" height="1024" viewBox="0 0 1440 1024" fill="none" xmlns="http://www.w3.org/2000/svg">
<rect width="1440" height="1024" fill="white"/>
<rect width="1440" height="1024" fill="#BEA0F0"/>
<rect width="1440" height="535" fill="#8C32B7"/>
<g filter="url(#filter0_d_25:2)">
<rect x="823" y="425" width="471" height="181" rx="90.5" fill="#C175E4"/>
</g>
<path d="M977.732 541.954L981.248 545.25C970.164 559.654 956.81 566.856 941.185 566.856C930.979 566.856 922.361 563.561 915.33 556.969C911.912 553.795 909.202 549.742 907.2 544.811C905.247 539.879 904.271 534.239 904.271 527.892C904.271 521.544 905.467 514.952 907.859 508.116C910.252 501.231 913.572 494.859 917.82 489C922.068 483.141 926.927 477.916 932.396 473.326C937.864 468.688 943.895 465.05 950.486 462.413C957.078 459.728 964.012 458.385 971.287 458.385C978.562 458.385 984.861 460.704 990.184 465.343C995.506 469.981 998.167 476.476 998.167 484.825C998.167 489.757 997.02 494.957 994.725 500.426C992.479 505.846 989.549 510.777 985.936 515.221C982.371 519.615 978.147 523.253 973.265 526.134C968.382 529.015 963.523 530.455 958.689 530.455C953.855 530.455 950.022 528.893 947.19 525.768C944.358 522.643 942.942 519.005 942.942 514.854C942.942 507.726 945.896 500.841 951.805 494.2C957.762 487.511 965.403 482.579 974.729 479.405L976.414 483.287C971.727 484.85 967.308 487.462 963.157 491.124C959.007 494.786 955.76 498.717 953.416 502.916C951.121 507.066 949.974 510.68 949.974 513.756C949.974 520.152 953.538 523.351 960.667 523.351C965.647 523.351 970.628 521.153 975.608 516.759C980.638 512.364 984.642 507.213 987.62 501.305C990.647 495.348 992.161 489.635 992.161 484.166C992.161 478.648 990.306 474.156 986.595 470.689C982.884 467.174 977.952 465.416 971.8 465.416C965.647 465.416 959.324 467.271 952.83 470.982C946.336 474.693 940.574 479.454 935.545 485.265C930.564 491.075 926.463 497.765 923.24 505.333C920.066 512.853 918.479 520.25 918.479 527.525C918.479 539.293 922.41 547.936 930.271 553.453C934.861 556.676 940.062 558.287 945.872 558.287C951.731 558.287 957.493 556.871 963.157 554.039C968.821 551.158 973.68 547.13 977.732 541.954ZM1031.42 521.373H1042.84L1037.06 543.272C1036.13 546.349 1035.67 549.156 1035.67 551.695C1035.67 554.186 1036.11 555.431 1036.99 555.431C1037.86 555.431 1039.06 554.674 1040.57 553.16C1042.14 551.598 1043.46 550.035 1044.53 548.473L1046.21 546.129L1049.36 549.059C1047.75 552.184 1045.7 555.04 1043.21 557.628C1038.38 562.657 1034.18 565.172 1030.61 565.172C1026.41 565.172 1024.31 561.925 1024.31 555.431C1024.31 554.356 1024.36 553.551 1024.46 553.014C1023.73 555.504 1022.34 557.701 1020.29 559.605C1016.38 563.316 1011.96 565.172 1007.03 565.172C1002.15 565.172 998.216 563.512 995.237 560.191C992.308 556.822 990.843 552.623 990.843 547.594C990.843 539.781 993.382 533.189 998.46 527.818C1003.54 522.447 1009.5 519.762 1016.33 519.762C1019.75 519.762 1022.58 520.714 1024.83 522.618C1027.07 524.474 1028.54 526.915 1029.22 529.942L1031.42 521.373ZM1019.19 526.061C1016.36 526.061 1013.69 527.257 1011.2 529.649C1008.76 531.993 1006.88 534.85 1005.56 538.219C1004.25 541.539 1003.59 544.786 1003.59 547.96C1003.59 551.134 1004.27 553.697 1005.64 555.65C1007.05 557.604 1009.2 558.58 1012.08 558.58C1015.01 558.58 1017.65 557.262 1019.99 554.625C1024.44 549.547 1026.66 543.517 1026.66 536.534C1026.66 529.552 1024.17 526.061 1019.19 526.061ZM1093.53 529.356C1091.67 529.356 1089.48 530.553 1086.94 532.945C1084.4 535.289 1081.93 538.17 1079.54 541.588C1075.73 547.057 1071.85 553.355 1067.89 560.484L1065.92 564H1055.59C1055.59 564 1056.35 561.705 1057.86 557.115C1062.11 544.42 1064.23 536.9 1064.23 534.557C1064.23 532.164 1063.84 530.968 1063.06 530.968C1061.64 530.968 1059.96 532.652 1058.01 536.021C1057.57 536.803 1057.2 537.438 1056.91 537.926C1056.61 538.365 1056.27 538.927 1055.88 539.61C1055.54 540.245 1055.32 540.636 1055.22 540.782L1050.32 537.926C1054.12 531.725 1057.62 527.159 1060.79 524.229C1063.96 521.251 1067.21 519.762 1070.53 519.762C1072.04 519.762 1073.34 520.396 1074.41 521.666C1075.54 522.936 1076.1 524.449 1076.1 526.207C1076.1 527.916 1076 529.454 1075.8 530.821C1075.61 532.14 1075.39 533.36 1075.14 534.483C1074.9 535.606 1074.56 536.949 1074.12 538.512C1073.68 540.074 1073.31 541.271 1073.02 542.101C1072.78 542.931 1072.43 544.054 1072 545.47C1071.56 546.886 1071.29 547.716 1071.19 547.96C1072.07 546.202 1073.56 543.614 1075.66 540.196C1077.76 536.778 1079.12 534.63 1079.76 533.751C1080.39 532.872 1081.27 531.7 1082.4 530.235C1083.52 528.771 1084.5 527.647 1085.33 526.866C1086.2 526.036 1087.23 525.108 1088.4 524.083C1089.62 523.009 1090.77 522.203 1091.84 521.666C1094.58 520.396 1097.21 519.762 1099.75 519.762C1102.29 519.762 1104.32 520.519 1105.83 522.032C1107.4 523.497 1108.18 525.23 1108.18 527.232C1108.18 529.186 1107.54 530.919 1106.27 532.433C1105.05 533.897 1103.61 534.63 1101.95 534.63C1100.34 534.63 1099.07 534.361 1098.14 533.824C1097.21 533.238 1096.58 532.628 1096.24 531.993C1095.21 530.235 1094.31 529.356 1093.53 529.356ZM1106.13 546.568C1106.13 542.906 1107 539.391 1108.76 536.021C1110.57 532.604 1112.89 529.723 1115.72 527.379C1121.97 522.301 1128.34 519.762 1134.84 519.762C1141.33 519.762 1146.65 521.495 1150.8 524.962C1154.95 528.429 1157.03 532.774 1157.03 537.999C1157.03 543.175 1155.59 547.838 1152.71 551.988C1149.88 556.139 1146.12 559.386 1141.43 561.729C1136.74 564.024 1131.61 565.172 1126.05 565.172C1120.53 565.172 1115.82 563.438 1111.91 559.972C1108.05 556.456 1106.13 551.988 1106.13 546.568ZM1130.08 560.631C1132.32 560.631 1134.42 559.898 1136.38 558.434C1138.38 556.969 1139.89 555.064 1140.92 552.721C1142.92 548.229 1143.92 543.59 1143.92 538.805C1143.92 534.02 1143.04 530.406 1141.28 527.965C1139.52 525.475 1137.03 524.229 1133.81 524.229C1130.59 524.229 1127.39 526.329 1124.22 530.528C1121.09 534.728 1119.53 540.074 1119.53 546.568C1119.53 555.943 1123.04 560.631 1130.08 560.631ZM1190.28 466.588H1202.15C1200.05 470.201 1196.82 478.233 1192.48 490.685C1188.13 503.087 1184.15 515.587 1180.54 528.185C1176.98 540.733 1175.19 548.424 1175.19 551.256C1175.19 554.039 1175.54 555.431 1176.22 555.431C1178.27 555.431 1181.47 552.33 1185.81 546.129L1188.89 549.059C1186.74 552.77 1184.42 555.895 1181.93 558.434C1177.54 562.926 1173.97 565.172 1171.24 565.172C1166.26 565.172 1163.77 562.169 1163.77 556.163C1163.77 547.228 1166.72 533.141 1172.63 513.902C1178.59 494.664 1184.47 478.893 1190.28 466.588Z" fill="#FFF8F8"/>
<defs>
<filter id="filter0_d_25:2" x="819" y="425" width="479" height="189" filterUnits="userSpaceOnUse" color-interpolation-filters="sRGB">
<feFlood flood-opacity="0" result="BackgroundImageFix"/>
<feColorMatrix in="SourceAlpha" type="matrix" values="0 0 0 0 0 0 0 0 0 0 0 0 0 0 0 0 0 0 127 0" result="hardAlpha"/>
<feOffset dy="4"/>
<feGaussianBlur stdDeviation="2"/>
<feComposite in2="hardAlpha" operator="out"/>
<feColorMatrix type="matrix" values="0 0 0 0 0 0 0 0 0 0 0 0 0 0 0 0 0 0 0.25 0"/>
<feBlend mode="normal" in2="BackgroundImageFix" result="effect1_dropShadow_25:2"/>
<feBlend mode="normal" in="SourceGraphic" in2="effect1_dropShadow_25:2" result="shape"/>
</filter>
</defs>
</svg>
